<svg width="800" height="800" viewBox="0 0 800 800" fill="none" xmlns="http://www.w3.org/2000/svg" baseProfile="full" version="1.1">
    <title>Why Join</title>
    <rect width="800" height="800" fill="white"/>
    <path d="M705.299 430.094H704C624.995 429.594 560.858 365.442 560.351 286.43V278.687C560.351 274.444 556.906 271 552.663 271C548.42 271 544.976 274.437 544.976 278.687V285.277C544.976 285.361 544.927 285.43 544.927 285.507C544.927 285.659 544.948 285.812 544.948 285.972C544.698 365.199 480.429 429.594 401.271 430.094H399.424C320.106 429.587 255.718 364.949 255.718 285.507V278.687C255.718 274.444 252.281 271 248.031 271C243.788 271 240.344 274.437 240.344 278.687V285.25C240.344 285.34 240.295 285.416 240.295 285.507C240.295 365.255 175.422 430.135 95.6734 430.135C91.4374 430.135 88 433.58 88 437.823C88 442.066 91.4374 445.51 95.6873 445.51C96.104 445.51 96.4998 445.448 96.9165 445.448C96.9442 445.448 96.9651 445.461 96.9929 445.461H240.358V520.668C240.358 524.911 243.795 528.355 248.045 528.355C252.288 528.355 255.732 524.911 255.732 520.668V445.461H399.438C399.75 445.461 400.049 445.51 400.361 445.51C400.674 445.51 400.972 445.468 401.285 445.461H544.99V520.668C544.99 524.911 548.434 528.355 552.677 528.355C556.92 528.355 560.365 524.911 560.365 520.668V445.461H704.014C704.327 445.461 704.625 445.51 704.938 445.51C705.021 445.51 705.09 445.468 705.167 445.461H705.313C709.556 445.461 713 442.017 713 437.774C713 433.531 709.542 430.094 705.299 430.094ZM163.755 430.094C197.359 414.205 224.518 387.018 240.358 353.38V430.094H163.755ZM255.732 430.094V353.484C271.586 387.067 298.718 414.219 332.286 430.094H255.732ZM468.429 430.094C501.998 414.219 529.129 387.074 544.983 353.491V430.094H468.429ZM560.358 430.094V353.581C576.218 387.122 603.322 414.233 636.863 430.087L560.358 430.094Z" fill="#303030"/>
</svg>
